<?xml version="1.0" encoding="UTF-8" standalone="no"?>
<!-- Created with Inkscape (http://www.inkscape.org/) -->

<svg
   xmlns:dc="http://purl.org/dc/elements/1.1/"
   xmlns:cc="http://creativecommons.org/ns#"
   xmlns:rdf="http://www.w3.org/1999/02/22-rdf-syntax-ns#"
   xmlns:svg="http://www.w3.org/2000/svg"
   xmlns="http://www.w3.org/2000/svg"
   version="1.1"
   width="263.4259"
   height="266.44537"
   id="svg2">
  <defs
     id="defs4">
    <filter
       color-interpolation-filters="sRGB"
       id="filter4101">
      <feGaussianBlur
         id="feGaussianBlur4103"
         stdDeviation="5.2750982" />
    </filter>
    <filter
       x="-0.23402472"
       y="-0.23402472"
       width="1.4680494"
       height="1.4680494"
       color-interpolation-filters="sRGB"
       id="filter4183">
      <feGaussianBlur
         id="feGaussianBlur4185"
         stdDeviation="2.4377575" />
    </filter>
    <filter
       color-interpolation-filters="sRGB"
       id="filter4187">
      <feGaussianBlur
         id="feGaussianBlur4189"
         stdDeviation="2.6546055" />
    </filter>
    <filter
       color-interpolation-filters="sRGB"
       id="filter4305">
      <feGaussianBlur
         id="feGaussianBlur4307"
         stdDeviation="1.9666927" />
    </filter>
    <filter
       color-interpolation-filters="sRGB"
       id="filter4311">
      <feGaussianBlur
         id="feGaussianBlur4313"
         stdDeviation="1.7398437" />
    </filter>
    <filter
       x="-0.32583323"
       y="-0.18619043"
       width="1.6516664"
       height="1.3723809"
       color-interpolation-filters="sRGB"
       id="filter4319">
      <feGaussianBlur
         id="feGaussianBlur4321"
         stdDeviation="1.2342798" />
    </filter>
    <filter
       x="-0.33514276"
       y="-0.044600751"
       width="1.6702855"
       height="1.0892015"
       color-interpolation-filters="sRGB"
       id="filter4323">
      <feGaussianBlur
         id="feGaussianBlur4325"
         stdDeviation="1.2342798" />
    </filter>
  </defs>
  <metadata
     id="metadata7">
    <rdf:RDF>
      <cc:Work
         rdf:about="">
        <dc:format>image/svg+xml</dc:format>
        <dc:type
           rdf:resource="http://purl.org/dc/dcmitype/StillImage" />
        <dc:title></dc:title>
      </cc:Work>
    </rdf:RDF>
  </metadata>
  <g
     transform="translate(-205.67803,-427.70033)"
     id="layer2"
     style="display:inline">
    <path
       d="m 317.69297,587.18695 a 109.09647,102.02541 0 1 1 -218.192947,0 109.09647,102.02541 0 1 1 218.192947,0 z"
       transform="matrix(1.0735585,0,0,1.1529139,113.45044,-116.05299)"
       id="path4059"
       style="opacity:0.79478263;fill:#161616;fill-opacity:1;fill-rule:evenodd;stroke:none;display:inline;filter:url(#filter4101)" />
    <path
       d="m 317.69297,587.18695 a 109.09647,102.02541 0 1 1 -218.192947,0 109.09647,102.02541 0 1 1 218.192947,0 z"
       transform="matrix(1.0735585,0,0,1.1529139,113.45044,-116.05299)"
       id="path3170"
       style="fill:#ffffff;fill-opacity:1;fill-rule:evenodd;stroke:none;display:inline" />
  </g>
  <g
     transform="translate(-205.67803,-427.70033)"
     id="layer3"
     style="display:inline">
    <path
       d="m 436.38591,586.93439 a 66.417526,131.57237 0 1 1 -132.83505,0 66.417526,131.57237 0 1 1 132.83505,0 z"
       transform="matrix(1.6806084,0,0,0.85220729,-284.38101,60.228121)"
       id="path3945"
       style="fill:#0091bd;fill-opacity:1" />
  </g>
  <g
     transform="translate(-205.67803,-427.70033)"
     id="layer4"
     style="display:inline">
    <path
       d="m 313.57143,459.1479 c 0,0 61.42857,-15.71429 97.5,26.78571 36.07143,42.5 32.85714,67.14286 31.78571,90 -1.07143,22.85714 -13.92857,31.78571 -31.42857,40.71429 -17.5,8.92857 -64.64286,6.42857 -76.07143,6.42857 -11.42857,0 -64.64285,-3.21429 -80.35714,-15.35715 -15.71429,-12.14285 -20,-20 -21.42857,-30.35714 -1.42857,-10.35714 -2.5,-40 11.78571,-64.64286 14.28572,-24.64285 27.5,-45.71428 68.21429,-53.57142 z"
       id="path4006"
       style="fill:#4cb4d3;fill-opacity:1;stroke:none" />
  </g>
  <g
     transform="translate(-205.67803,-427.70033)"
     id="layer5"
     style="display:inline">
    <path
       d="m 270.89286,495.66575 c 0,0 3.57143,-24.19643 25.71428,-24.46428 22.14286,-0.26786 25.44643,20.08928 25.44643,23.125 0,3.03571 3.03572,13.03571 -22.5,13.03571 -25.53571,0 -28.57143,-6.78571 -28.66071,-11.69643 z"
       id="path3957"
       style="fill:#5fc9e8;fill-opacity:1;stroke:none" />
  </g>
  <g
     transform="translate(-205.67803,-427.70033)"
     id="layer6"
     style="display:inline">
    <path
       d="m 289.73214,479.23718 c 0,0 1.51786,-6.33928 6.69643,-6.33928 5.17857,0 7.76786,3.48214 7.76786,6.33928 0,2.85714 -1.96429,4.01786 -7.05357,3.92857 -5.08929,-0.0893 -7.23214,-1.33928 -7.41072,-3.92857 z"
       id="path3960"
       style="fill:#6fcde8;fill-opacity:1;stroke:none" />
  </g>
  <g
     transform="translate(-205.67803,-427.70033)"
     id="layer7"
     style="display:inline">
    <path
       d="m 368.92856,495.93362 a 12.5,12.5 0 1 1 -25,0 12.5,12.5 0 1 1 25,0 z"
       transform="matrix(1.07453,0,0,1.1035714,-28.311591,-53.284197)"
       id="path4107"
       style="opacity:0.79500002;fill:#161616;fill-opacity:1;stroke:none;filter:url(#filter4183)" />
    <path
       d="m 368.92856,495.93362 a 12.5,12.5 0 1 1 -25,0 12.5,12.5 0 1 1 25,0 z"
       transform="matrix(1.07453,0,0,1.1035714,-28.311591,-53.284197)"
       id="path3963"
       style="fill:#aad64d;fill-opacity:1;stroke:none" />
    <path
       d="m 371.60714,529.68361 c 0,0 15.53572,-2.14286 15.53572,4.64286 0,6.78571 -6.78572,5.53571 -10.35714,5.35714 -3.57143,-0.17857 -23.75,0 -23.75,0 l -11.07143,-16.25 -15.53572,15.71429 15.53572,10.35714 c 0,0 5.35714,2.5 4.10714,6.96428 -1.25,4.46429 -0.53571,33.57143 -0.53571,33.57143 0,0 1.07142,11.60715 -6.42858,11.96429 -7.5,0.35714 -8.57143,-4.82143 -8.92857,-9.64286 -0.35714,-4.82143 -0.53571,-26.07143 -0.53571,-26.07143 l -30,-18.92857 c 0,0 -2.85715,-2.67857 -3.03572,-6.25 -0.17857,-3.57143 0.35715,-5 4.28572,-9.46428 C 304.82143,527.18361 330,502.36218 330,502.36218 c 0,0 2.5,-3.21428 5.17857,-3.57143 2.67857,-0.35714 3.92857,0.89286 5.71429,3.92857 1.78571,3.03572 17.5,26.78572 17.5,26.78572 z"
       id="path4109"
       style="opacity:0.79500002;fill:#161616;fill-opacity:1;stroke:none;filter:url(#filter4187)" />
    <path
       d="m 371.60714,529.68361 c 0,0 15.53572,-2.14286 15.53572,4.64286 0,6.78571 -6.78572,5.53571 -10.35714,5.35714 -3.57143,-0.17857 -23.75,0 -23.75,0 l -11.07143,-16.25 -15.53572,15.71429 15.53572,10.35714 c 0,0 5.35714,2.5 4.10714,6.96428 -1.25,4.46429 -0.53571,33.57143 -0.53571,33.57143 0,0 1.07142,11.60715 -6.42858,11.96429 -7.5,0.35714 -8.57143,-4.82143 -8.92857,-9.64286 -0.35714,-4.82143 -0.53571,-26.07143 -0.53571,-26.07143 l -30,-18.92857 c 0,0 -2.85715,-2.67857 -3.03572,-6.25 -0.17857,-3.57143 0.35715,-5 4.28572,-9.46428 C 304.82143,527.18361 330,502.36218 330,502.36218 c 0,0 2.5,-3.21428 5.17857,-3.57143 2.67857,-0.35714 3.92857,0.89286 5.71429,3.92857 1.78571,3.03572 17.5,26.78572 17.5,26.78572 z"
       id="path3973"
       style="fill:#aad64d;fill-opacity:1;stroke:none" />
  </g>
  <g
     transform="translate(-205.67803,-427.70033)"
     id="layer8"
     style="display:inline">
    <path
       d="m 253.5625,534.6875 c 0,0 0.36607,31.24107 0.1875,54.8125 -0.17857,23.57143 17.66518,35.34821 34.09375,34.8125 C 304.27232,623.77678 321.60714,612 321.25,589.5 320.89286,567 304.99107,556.30357 287.3125,556.125 c -17.67857,-0.17857 -25.15625,11.25 -25.15625,11.25 l 0.15625,-32.5 -8.75,-0.1875 z M 287.59375,564.5 c 14.04999,0 25.4375,11.51714 25.4375,25.71875 0,14.20161 -11.38751,25.71875 -25.4375,25.71875 -14.04999,0 -25.4375,-11.51714 -25.4375,-25.71875 0,-14.20161 11.38751,-25.71875 25.4375,-25.71875 z"
       id="path3976"
       style="fill:#ffffff;fill-opacity:1;stroke:none" />
    <path
       d="m 253.5625,534.6875 c 0,0 0.36607,31.24107 0.1875,54.8125 -0.17857,23.57143 17.66518,35.34821 34.09375,34.8125 C 304.27232,623.77678 321.60714,612 321.25,589.5 320.89286,567 304.99107,556.30357 287.3125,556.125 c -17.67857,-0.17857 -25.15625,11.25 -25.15625,11.25 l 0.15625,-32.5 -8.75,-0.1875 z M 287.59375,564.5 c 14.04999,0 25.4375,11.51714 25.4375,25.71875 0,14.20161 -11.38751,25.71875 -25.4375,25.71875 -14.04999,0 -25.4375,-11.51714 -25.4375,-25.71875 0,-14.20161 11.38751,-25.71875 25.4375,-25.71875 z"
       id="path4279"
       style="opacity:0.79500002;fill:#161616;fill-opacity:1;stroke:none;filter:url(#filter4305)" />
    <path
       d="m 253.5625,534.6875 c 0,0 0.36607,31.24107 0.1875,54.8125 -0.17857,23.57143 17.66518,35.34821 34.09375,34.8125 C 304.27232,623.77678 321.60714,612 321.25,589.5 320.89286,567 304.99107,556.30357 287.3125,556.125 c -17.67857,-0.17857 -25.15625,11.25 -25.15625,11.25 l 0.15625,-32.5 -8.75,-0.1875 z M 287.59375,564.5 c 14.04999,0 25.4375,11.51714 25.4375,25.71875 0,14.20161 -11.38751,25.71875 -25.4375,25.71875 -14.04999,0 -25.4375,-11.51714 -25.4375,-25.71875 0,-14.20161 11.38751,-25.71875 25.4375,-25.71875 z"
       id="path4191"
       style="fill:#ffffff;fill-opacity:1;stroke:none" />
  </g>
  <g
     transform="translate(-205.67803,-427.70033)"
     id="layer9"
     style="display:inline">
    <rect
       width="9.0913734"
       height="15.909903"
       x="430.32498"
       y="534.659"
       id="rect3982"
       style="fill:#ffffff;fill-opacity:1;stroke:none" />
    <rect
       width="8.8388348"
       height="66.417526"
       x="430.83005"
       y="557.63995"
       id="rect3984"
       style="fill:#ffffff;fill-opacity:1;stroke:none" />
    <rect
       width="9.0913734"
       height="15.909903"
       x="430.32498"
       y="534.659"
       id="rect4315"
       style="opacity:0.79500002;fill:#161616;fill-opacity:1;stroke:none;filter:url(#filter4319)" />
    <rect
       width="9.0913734"
       height="15.909903"
       x="430.32498"
       y="534.659"
       id="rect4193"
       style="fill:#ffffff;fill-opacity:1;stroke:none" />
    <rect
       width="8.8388348"
       height="66.417526"
       x="430.83005"
       y="557.63995"
       id="rect4317"
       style="opacity:0.79500002;fill:#161616;fill-opacity:1;stroke:none;filter:url(#filter4323)" />
    <rect
       width="8.8388348"
       height="66.417526"
       x="430.83005"
       y="557.63995"
       id="rect4195"
       style="fill:#ffffff;fill-opacity:1;stroke:none" />
  </g>
  <g
     transform="translate(-205.67803,-427.70033)"
     id="layer10"
     style="display:inline">
    <path
       d="m 390.3192,555.66798 c -19.72445,0 -35.71875,15.80335 -35.71875,35.28125 0,19.4779 15.9943,35.25 35.71875,35.25 14.81826,0 27.52994,-8.90654 32.9375,-21.59375 l -11.4375,0 c -4.70443,7.28367 -12.8837,12.125 -22.21875,12.125 -14.5961,0 -26.4375,-11.78748 -26.4375,-26.34375 0,-14.55627 11.8414,-26.375 26.4375,-26.375 9.79909,0 18.3398,5.34417 22.90625,13.25 l 10.71875,0 c -5.4166,-12.67605 -18.10258,-21.59375 -32.90625,-21.59375 z"
       id="path4002"
       style="fill:#ffffff;fill-opacity:1;stroke:none;display:inline" />
    <path
       d="m 390.3192,555.66798 c -19.72445,0 -35.71875,15.80335 -35.71875,35.28125 0,19.4779 15.9943,35.25 35.71875,35.25 14.81826,0 27.52994,-8.90654 32.9375,-21.59375 l -11.4375,0 c -4.70443,7.28367 -12.8837,12.125 -22.21875,12.125 -14.5961,0 -26.4375,-11.78748 -26.4375,-26.34375 0,-14.55627 11.8414,-26.375 26.4375,-26.375 9.79909,0 18.3398,5.34417 22.90625,13.25 l 10.71875,0 c -5.4166,-12.67605 -18.10258,-21.59375 -32.90625,-21.59375 z"
       id="path4309"
       style="opacity:0.79500002;fill:#161616;fill-opacity:1;stroke:none;display:inline;filter:url(#filter4311)" />
    <path
       d="m 390.3192,555.66798 c -19.72445,0 -35.71875,15.80335 -35.71875,35.28125 0,19.4779 15.9943,35.25 35.71875,35.25 14.81826,0 27.52994,-8.90654 32.9375,-21.59375 l -11.4375,0 c -4.70443,7.28367 -12.8837,12.125 -22.21875,12.125 -14.5961,0 -26.4375,-11.78748 -26.4375,-26.34375 0,-14.55627 11.8414,-26.375 26.4375,-26.375 9.79909,0 18.3398,5.34417 22.90625,13.25 l 10.71875,0 c -5.4166,-12.67605 -18.10258,-21.59375 -32.90625,-21.59375 z"
       id="path4197"
       style="fill:#ffffff;fill-opacity:1;stroke:none;display:inline" />
  </g>
</svg>
